<svg width="22" height="22" viewBox="0 0 22 22" fill="none" xmlns="http://www.w3.org/2000/svg">
<path d="M10.75 0C16.6871 0 21.5 4.81294 21.5 10.75C21.5 16.6871 16.6871 21.5 10.75 21.5C4.81294 21.5 0 16.6871 0 10.75C0 4.81294 4.81294 0 10.75 0ZM14.1084 7.3916C13.9168 7.20008 13.6368 7.1262 13.376 7.19922L8.95703 8.4375C8.7048 8.50813 8.50716 8.7048 8.43652 8.95703L7.19922 13.377C7.12635 13.6377 7.19918 13.9179 7.39062 14.1094C7.58222 14.301 7.8631 14.3738 8.12402 14.3008L12.543 13.0635C12.7951 12.9929 12.9928 12.7961 13.0635 12.5439L14.3008 8.12402C14.3738 7.86315 14.3 7.58316 14.1084 7.3916Z" fill="#2D2D41"/>
</svg>
