<svg width="25" height="24" viewBox="0 0 25 24" fill="none" xmlns="http://www.w3.org/2000/svg">
<path d="M18.332 1L18.3321 0H18.332V1ZM23.332 6H24.332H23.332ZM18.332 18.8652V19.8652H18.3321L18.332 18.8652ZM2.625 22.0322L3.2497 22.8131L3.24977 22.813L2.625 22.0322ZM6.03514 19.3036L5.41037 18.5228L6.03514 19.3036ZM18.332 1L18.3319 2C20.541 2.00018 22.332 3.79109 22.332 6H23.332H24.332C24.332 2.68635 21.6455 0.000277042 18.3321 0L18.332 1ZM23.332 6H22.332V13.8652H23.332H24.332V6H23.332ZM23.332 13.8652H22.332C22.332 16.0741 20.541 17.865 18.3319 17.8652L18.332 18.8652L18.3321 19.8652C21.6455 19.865 24.332 17.1789 24.332 13.8652H23.332ZM18.332 18.8652V17.8652H7.28467V18.8652V19.8652H18.332V18.8652ZM6.03514 19.3036L5.41037 18.5228L2.00023 21.2514L2.625 22.0322L3.24977 22.813L6.65991 20.0844L6.03514 19.3036ZM2.625 22.0322L2.0003 21.2514L2 21.251H1H0C0 22.9275 1.93982 23.861 3.2497 22.8131L2.625 22.0322ZM1 21.251H2V6H1H0V21.251H1ZM1 6H2C2 3.79086 3.79086 2 6 2V1V0C2.68629 0 0 2.68629 0 6H1ZM6 1V2H18.332V1V0H6V1ZM7.28467 18.8652V17.8652C6.60336 17.8652 5.94235 18.0971 5.41037 18.5228L6.03514 19.3036L6.65991 20.0844C6.83723 19.9425 7.05757 19.8652 7.28467 19.8652V18.8652Z" fill="#898AA5"/>
<circle cx="6.63871" cy="9.98825" r="1" fill="#898AA5" stroke="#898AA5" stroke-width="0.791451"/>
<circle cx="12.2216" cy="9.98825" r="1" fill="#898AA5" stroke="#898AA5" stroke-width="0.791451"/>
<circle cx="17.8045" cy="9.98825" r="1" fill="#898AA5" stroke="#898AA5" stroke-width="0.791451"/>
</svg>
