<svg width="24" height="23" viewBox="0 0 24 23" fill="none" xmlns="http://www.w3.org/2000/svg">
<path d="M17.5811 0C21.126 0 24 2.87405 24 6.41895V13.1162C24 16.6611 21.126 19.5352 17.5811 19.5352H7.20215C6.8853 19.5352 6.57749 19.6429 6.33008 19.8408L3.17383 22.3652C1.89476 23.3885 0 22.4779 0 20.8398V6.41895C0 2.87405 2.87405 0 6.41895 0H17.5811ZM6.47461 8.42773C5.70398 8.42773 5.0791 9.05261 5.0791 9.82324C5.07921 10.5938 5.70405 11.2188 6.47461 11.2188C7.24498 11.2185 7.86903 10.5936 7.86914 9.82324C7.86914 9.05275 7.24505 8.42796 6.47461 8.42773ZM12.0557 8.42773C11.285 8.42773 10.6602 9.05261 10.6602 9.82324C10.6603 10.5938 11.2851 11.2188 12.0557 11.2188C12.8262 11.2187 13.451 10.5937 13.4512 9.82324C13.4512 9.05264 12.8263 8.42777 12.0557 8.42773ZM17.6367 8.42773C16.8662 8.42788 16.2412 9.0527 16.2412 9.82324C16.2413 10.5937 16.8663 11.2186 17.6367 11.2188C18.4073 11.2188 19.0321 10.5938 19.0322 9.82324C19.0322 9.05261 18.4073 8.42773 17.6367 8.42773Z" fill="#2D2D41"/>
</svg>
