<svg width="25" height="25" viewBox="0 0 25 25" fill="none" xmlns="http://www.w3.org/2000/svg">
<path d="M12.5 24C18.8513 24 24 18.8513 24 12.5C24 6.14873 18.8513 1 12.5 1C6.14873 1 1 6.14873 1 12.5C1 18.8513 6.14873 24 12.5 24Z" stroke="#898AA5" stroke-width="2" stroke-linecap="round" stroke-linejoin="round"/>
<path d="M15.4786 8.25647C16.2604 7.99588 17.0041 8.73962 16.7436 9.52138L15.2542 13.9893C15.0552 14.5865 14.5865 15.0552 13.9893 15.2542L9.52138 16.7436C8.73962 17.0041 7.99588 16.2604 8.25647 15.4786L9.74578 11.0107C9.94485 10.4135 10.4135 9.94485 11.0107 9.74578L15.4786 8.25647Z" stroke="#898AA5" stroke-width="2" stroke-linecap="round" stroke-linejoin="round"/>
</svg>
