<svg width="32" height="32" viewBox="0 0 32 32" fill="none" xmlns="http://www.w3.org/2000/svg">
<path fill-rule="evenodd" clip-rule="evenodd" d="M4.16786 9.38681C4.94887 10.2843 6.01705 11.173 6.89771 11.8567C6.17088 12.9817 5.76039 14.2588 5.76039 15.6125C5.76039 18.9763 8.29467 21.0515 11.9191 22.137C12.7298 22.3798 13.3638 23.0395 13.4921 23.876L13.8189 26.0073C13.8955 26.5071 14.3254 26.8761 14.831 26.8761H17.169C17.6746 26.8761 18.1045 26.5071 18.1811 26.0073L18.5079 23.876C18.6362 23.0395 19.2702 22.3798 20.0809 22.137C23.7053 21.0515 26.2396 18.9763 26.2396 15.6125C26.2396 14.2588 25.8291 12.9817 25.1023 11.8567C25.983 11.173 27.0511 10.2843 27.8321 9.38684C28.3212 8.82481 28.7653 8.18482 28.9306 7.53246C29.0165 7.1934 29.0342 6.8231 28.917 6.45519C28.798 6.08196 28.5592 5.77133 28.2333 5.52693C27.897 5.27475 27.5265 5.12962 27.1284 5.12048C26.7384 5.11154 26.3896 5.23463 26.0924 5.40109C25.5305 5.71576 25.0076 6.27512 24.5535 6.76333L24.4775 6.84502C24.0166 7.34099 23.5792 7.81161 23.1013 8.17381C22.6068 8.54857 22.1323 8.75639 21.6319 8.75639C21.6234 8.75639 21.615 8.75654 21.6067 8.75683C19.9961 7.91211 18.0697 7.42084 16 7.42084C13.9303 7.42084 12.004 7.91209 10.3934 8.7568C10.385 8.7565 10.3766 8.75636 10.3681 8.75636C9.86772 8.75636 9.39322 8.54854 8.89873 8.17378C8.42083 7.81158 7.98344 7.34096 7.52249 6.84499L7.44654 6.7633C6.99239 6.27509 6.46951 5.71573 5.90761 5.40106C5.61035 5.2346 5.26155 5.11151 4.87162 5.12045C4.47354 5.12958 4.10295 5.27472 3.7667 5.5269C3.44082 5.7713 3.20199 6.08192 3.08303 6.45516C2.96576 6.82307 2.98346 7.19337 3.06938 7.53243C3.23471 8.18479 3.67877 8.82478 4.16786 9.38681ZM4.9043 6.54484C4.84971 6.54609 4.76022 6.56272 4.62154 6.66673C4.49664 6.76039 4.45674 6.83689 4.4405 6.88785C4.42256 6.94414 4.41316 7.03511 4.45049 7.18242C4.53168 7.50279 4.79396 7.9359 5.24265 8.45151C5.93866 9.25133 6.92177 10.0714 7.77423 10.7332C8.08527 10.3982 8.42753 10.0828 8.79758 9.78984C8.52506 9.6519 8.27214 9.48661 8.03815 9.30927C7.45715 8.86894 6.94004 8.31183 6.49958 7.83731L6.40335 7.73371C5.90765 7.20085 5.54004 6.82818 5.21146 6.64418C5.06347 6.5613 4.96703 6.5434 4.9043 6.54484ZM23.2024 9.78985C23.5725 10.0828 23.9147 10.3982 24.2258 10.7332C25.0782 10.0714 26.0613 9.25136 26.7574 8.45154C27.206 7.93593 27.4683 7.50282 27.5495 7.18245C27.5868 7.03515 27.5774 6.94417 27.5595 6.88788C27.5433 6.83692 27.5034 6.76043 27.3785 6.66676C27.2398 6.56275 27.1503 6.54613 27.0957 6.54487C27.033 6.54343 26.9365 6.56134 26.7885 6.64421C26.46 6.82821 26.0923 7.20088 25.5966 7.73375L25.5004 7.83734C25.06 8.31186 24.5428 8.86897 23.9618 9.30931C23.7279 9.48664 23.475 9.65191 23.2024 9.78985ZM19.6403 20.6656C23.0196 19.6535 24.7037 17.9529 24.7037 15.6125C24.7037 12.2388 21.1444 8.95678 16 8.95678C10.8556 8.95678 7.29633 12.2388 7.29633 15.6125C7.29633 17.9529 8.98041 19.6535 12.3597 20.6656C13.6726 21.0589 14.7821 22.1552 15.0103 23.6432L15.2705 25.3402H16.7295L16.9897 23.6432C17.2179 22.1552 18.3274 21.0589 19.6403 20.6656Z" fill="black"/>
</svg>
