<svg width="32" height="32" viewBox="0 0 32 32" fill="none" xmlns="http://www.w3.org/2000/svg">
<path fill-rule="evenodd" clip-rule="evenodd" d="M11.0523 6.98813C10.8823 7.65167 10.2843 8.1157 9.59931 8.1157C9.53591 8.1157 9.48088 8.11217 9.43711 8.10808C8.70112 8.14115 8.11111 8.75166 8.11111 9.49556C8.11111 9.58721 8.12258 9.67982 8.14495 9.77132C8.32108 10.4919 7.9441 11.233 7.25802 11.5149C6.48096 11.8342 5.94444 12.5913 5.94444 13.4678C5.94444 13.7764 6.02182 14.0832 6.17078 14.3928C6.51146 15.1008 6.24798 15.9518 5.5668 16.3435C4.92001 16.7154 4.5 17.3909 4.5 18.1622C4.5 19.0379 5.03586 19.7944 5.80339 20.112C6.46318 20.385 6.83905 21.0852 6.70195 21.786C6.67827 21.9071 6.66667 22.0226 6.66667 22.1344C6.66667 23.1025 7.44857 23.8844 8.41667 23.8844C8.48191 23.8844 8.56781 23.8764 8.69334 23.8539C9.42504 23.7225 10.1425 24.147 10.3799 24.8515C10.6183 25.5593 11.269 26.0511 12.0278 26.0511C12.9959 26.0511 13.7778 25.2692 13.7778 24.3011V7.32889C13.7778 6.56392 13.1539 5.94 12.3889 5.94C11.7511 5.94 11.2095 6.37489 11.0523 6.98813ZM26.4332 16.3435C25.7482 15.9496 25.4862 15.0919 25.8342 14.3825C25.9791 14.0872 26.0556 13.7837 26.0556 13.4678C26.0556 12.5913 25.519 11.8342 24.742 11.5149C24.067 11.2375 23.6896 10.5145 23.8479 9.80211C23.8779 9.66685 23.8889 9.56901 23.8889 9.49556C23.8889 8.75125 23.2982 8.14049 22.5617 8.10803C22.5217 8.1118 22.4661 8.1157 22.4007 8.1157C21.7157 8.1157 21.1177 7.65167 20.9477 6.98813C20.7905 6.37489 20.2489 5.94 19.6111 5.94C18.8446 5.94 18.2222 6.56093 18.2222 7.32889V24.3011C18.2222 25.2692 19.0041 26.0511 19.9722 26.0511C20.731 26.0511 21.3817 25.5593 21.6201 24.8515C21.8575 24.147 22.575 23.7225 23.3067 23.8539C23.4322 23.8764 23.5181 23.8844 23.5833 23.8844C24.5514 23.8844 25.3333 23.1025 25.3333 22.1344C25.3333 22.0226 25.3217 21.9071 25.298 21.786C25.1609 21.0852 25.5368 20.385 26.1966 20.112C26.9641 19.7944 27.5 19.0379 27.5 18.1622C27.5 17.3909 27.08 16.7154 26.4332 16.3435ZM15.2441 6.88738C15.0311 5.50293 13.8322 4.44 12.3889 4.44C11.0392 4.44 9.91979 5.36535 9.59931 6.6157C9.58125 6.6157 9.56545 6.61344 9.54965 6.61118C9.53385 6.60893 9.51806 6.60667 9.5 6.60667C7.9066 6.60667 6.61111 7.90216 6.61111 9.49556C6.61111 9.71222 6.63819 9.92438 6.68785 10.1275C5.36979 10.6692 4.44444 11.9601 4.44444 13.4678C4.44444 14.0365 4.58889 14.5647 4.8191 15.0431C3.73576 15.666 3 16.8216 3 18.1622C3 19.6654 3.92083 20.9563 5.22986 21.498C5.18924 21.7056 5.16667 21.9178 5.16667 22.1344C5.16667 23.931 6.62014 25.3844 8.41667 25.3844C8.60174 25.3844 8.78229 25.3619 8.95833 25.3303C9.39167 26.6167 10.5924 27.5511 12.0278 27.5511C13.6661 27.5511 15.0192 26.3423 15.2447 24.7669C15.2665 24.6148 15.2778 24.4593 15.2778 24.3011V7.32889C15.2778 7.1788 15.2663 7.03135 15.2441 6.88738ZM16.7553 24.7669C16.7335 24.6148 16.7222 24.4593 16.7222 24.3011V7.32889C16.7222 7.17863 16.7337 7.03109 16.7558 6.88707C16.9685 5.4996 18.1675 4.44 19.6111 4.44C20.9608 4.44 22.0802 5.36535 22.4007 6.6157C22.416 6.6157 22.4312 6.61359 22.447 6.61141C22.4639 6.60908 22.4813 6.60667 22.5 6.60667C24.0934 6.60667 25.3889 7.90216 25.3889 9.49556C25.3889 9.71222 25.3573 9.92438 25.3122 10.1275C26.6302 10.6692 27.5556 11.9601 27.5556 13.4678C27.5556 14.0365 27.4156 14.5647 27.1809 15.0431C28.2642 15.666 29 16.8216 29 18.1622C29 19.6654 28.0792 20.9563 26.7701 21.498C26.8108 21.7056 26.8333 21.9178 26.8333 22.1344C26.8333 23.931 25.3799 25.3844 23.5833 25.3844C23.3983 25.3844 23.2177 25.3619 23.0417 25.3303C22.6083 26.6167 21.4076 27.5511 19.9722 27.5511C18.3339 27.5511 16.9808 26.3423 16.7553 24.7669Z" fill="currentColor"/>
<path fill-rule="evenodd" clip-rule="evenodd" d="M11.0523 6.98813C10.8823 7.65167 10.2843 8.1157 9.59931 8.1157C9.53591 8.1157 9.48088 8.11217 9.43711 8.10808C8.70112 8.14115 8.11111 8.75166 8.11111 9.49556C8.11111 9.58721 8.12258 9.67982 8.14495 9.77132C8.32108 10.4919 7.9441 11.233 7.25802 11.5149C6.48096 11.8342 5.94444 12.5913 5.94444 13.4678C5.94444 13.7764 6.02182 14.0832 6.17078 14.3928C6.51146 15.1008 6.24798 15.9518 5.5668 16.3435C4.92001 16.7154 4.5 17.3909 4.5 18.1622C4.5 19.0379 5.03586 19.7944 5.80339 20.112C6.46318 20.385 6.83905 21.0852 6.70195 21.786C6.67827 21.9071 6.66667 22.0226 6.66667 22.1344C6.66667 23.1025 7.44857 23.8844 8.41667 23.8844C8.48191 23.8844 8.56781 23.8764 8.69334 23.8539C9.42504 23.7225 10.1425 24.147 10.3799 24.8515C10.6183 25.5593 11.269 26.0511 12.0278 26.0511C12.9959 26.0511 13.7778 25.2692 13.7778 24.3011V7.32889C13.7778 6.56392 13.1539 5.94 12.3889 5.94C11.7511 5.94 11.2095 6.37489 11.0523 6.98813ZM26.4332 16.3435C25.7482 15.9496 25.4862 15.0919 25.8342 14.3825C25.9791 14.0872 26.0556 13.7837 26.0556 13.4678C26.0556 12.5913 25.519 11.8342 24.742 11.5149C24.067 11.2375 23.6896 10.5145 23.8479 9.80211C23.8779 9.66685 23.8889 9.56901 23.8889 9.49556C23.8889 8.75125 23.2982 8.14049 22.5617 8.10803C22.5217 8.1118 22.4661 8.1157 22.4007 8.1157C21.7157 8.1157 21.1177 7.65167 20.9477 6.98813C20.7905 6.37489 20.2489 5.94 19.6111 5.94C18.8446 5.94 18.2222 6.56093 18.2222 7.32889V24.3011C18.2222 25.2692 19.0041 26.0511 19.9722 26.0511C20.731 26.0511 21.3817 25.5593 21.6201 24.8515C21.8575 24.147 22.575 23.7225 23.3067 23.8539C23.4322 23.8764 23.5181 23.8844 23.5833 23.8844C24.5514 23.8844 25.3333 23.1025 25.3333 22.1344C25.3333 22.0226 25.3217 21.9071 25.298 21.786C25.1609 21.0852 25.5368 20.385 26.1966 20.112C26.9641 19.7944 27.5 19.0379 27.5 18.1622C27.5 17.3909 27.08 16.7154 26.4332 16.3435ZM15.2441 6.88738C15.0311 5.50293 13.8322 4.44 12.3889 4.44C11.0392 4.44 9.91979 5.36535 9.59931 6.6157C9.58125 6.6157 9.56545 6.61344 9.54965 6.61118C9.53385 6.60893 9.51806 6.60667 9.5 6.60667C7.9066 6.60667 6.61111 7.90216 6.61111 9.49556C6.61111 9.71222 6.63819 9.92438 6.68785 10.1275C5.36979 10.6692 4.44444 11.9601 4.44444 13.4678C4.44444 14.0365 4.58889 14.5647 4.8191 15.0431C3.73576 15.666 3 16.8216 3 18.1622C3 19.6654 3.92083 20.9563 5.22986 21.498C5.18924 21.7056 5.16667 21.9178 5.16667 22.1344C5.16667 23.931 6.62014 25.3844 8.41667 25.3844C8.60174 25.3844 8.78229 25.3619 8.95833 25.3303C9.39167 26.6167 10.5924 27.5511 12.0278 27.5511C13.6661 27.5511 15.0192 26.3423 15.2447 24.7669C15.2665 24.6148 15.2778 24.4593 15.2778 24.3011V7.32889C15.2778 7.1788 15.2663 7.03135 15.2441 6.88738ZM16.7553 24.7669C16.7335 24.6148 16.7222 24.4593 16.7222 24.3011V7.32889C16.7222 7.17863 16.7337 7.03109 16.7558 6.88707C16.9685 5.4996 18.1675 4.44 19.6111 4.44C20.9608 4.44 22.0802 5.36535 22.4007 6.6157C22.416 6.6157 22.4312 6.61359 22.447 6.61141C22.4639 6.60908 22.4813 6.60667 22.5 6.60667C24.0934 6.60667 25.3889 7.90216 25.3889 9.49556C25.3889 9.71222 25.3573 9.92438 25.3122 10.1275C26.6302 10.6692 27.5556 11.9601 27.5556 13.4678C27.5556 14.0365 27.4156 14.5647 27.1809 15.0431C28.2642 15.666 29 16.8216 29 18.1622C29 19.6654 28.0792 20.9563 26.7701 21.498C26.8108 21.7056 26.8333 21.9178 26.8333 22.1344C26.8333 23.931 25.3799 25.3844 23.5833 25.3844C23.3983 25.3844 23.2177 25.3619 23.0417 25.3303C22.6083 26.6167 21.4076 27.5511 19.9722 27.5511C18.3339 27.5511 16.9808 26.3423 16.7553 24.7669Z" fill="currentColor"/>
<path fill-rule="evenodd" clip-rule="evenodd" d="M20.3684 15.1088C20.772 15.0157 21.0238 14.6131 20.9307 14.2095C20.7557 13.4503 20.8323 12.9252 21.0391 12.5539C21.2459 12.1826 21.652 11.841 22.3896 11.5901C22.7817 11.4567 22.9915 11.0307 22.8581 10.6385C22.7247 10.2464 22.2986 10.0366 21.9065 10.17C20.9412 10.4984 20.1712 11.0294 19.7286 11.8241C19.2861 12.6187 19.24 13.5529 19.4691 14.5465C19.5622 14.9501 19.9648 15.2019 20.3684 15.1088Z" fill="currentColor"/>
<path fill-rule="evenodd" clip-rule="evenodd" d="M11.6316 15.1088C11.228 15.0157 10.9762 14.6131 11.0693 14.2095C11.2443 13.4503 11.1677 12.9252 10.9609 12.5539C10.7541 12.1826 10.348 11.841 9.61044 11.5901C9.2183 11.4567 9.00854 11.0307 9.14193 10.6385C9.27533 10.2464 9.70136 10.0366 10.0935 10.17C11.0588 10.4984 11.8288 11.0294 12.2714 11.8241C12.7139 12.6187 12.76 13.5529 12.5309 14.5465C12.4378 14.9501 12.0352 15.2019 11.6316 15.1088Z" fill="currentColor"/>
<path fill-rule="evenodd" clip-rule="evenodd" d="M22.7703 16.7524C22.3906 16.9179 22.2169 17.3599 22.3824 17.7396C22.7128 18.4979 22.7165 19.0228 22.5711 19.3929C22.4257 19.7629 22.0656 20.1448 21.3073 20.4753C20.9275 20.6407 20.7539 21.0827 20.9193 21.4624C21.0848 21.8422 21.5268 22.0159 21.9065 21.8504C22.8768 21.4276 23.6249 20.8124 23.9671 19.9415C24.3094 19.0706 24.1803 18.1107 23.7575 17.1404C23.592 16.7607 23.1501 16.587 22.7703 16.7524Z" fill="currentColor"/>
<path fill-rule="evenodd" clip-rule="evenodd" d="M9.23039 16.7524C9.61012 16.9179 9.78381 17.3599 9.61835 17.7396C9.2879 18.4979 9.28422 19.0228 9.42964 19.3929C9.57507 19.7629 9.93513 20.1448 10.6935 20.4753C11.0732 20.6407 11.2469 21.0827 11.0814 21.4624C10.9159 21.8422 10.474 22.0159 10.0942 21.8504C9.12395 21.4276 8.37584 20.8124 8.03358 19.9415C7.69132 19.0706 7.82042 18.1107 8.24323 17.1404C8.4087 16.7607 8.85066 16.587 9.23039 16.7524Z" fill="currentColor"/>
</svg>
