<svg width="32" height="32" viewBox="0 0 32 32" fill="none" xmlns="http://www.w3.org/2000/svg">
<path fill-rule="evenodd" clip-rule="evenodd" d="M12.217 3.02283C12.4138 2.97365 12.622 3.00463 12.7959 3.10898C13.264 3.38983 13.9503 3.92164 14.5758 4.64335C15.0617 5.204 15.5347 5.90692 15.8277 6.72359C16.156 5.90808 16.6593 4.97131 17.5485 3.7857C17.7252 3.55011 18.0215 3.43691 18.3103 3.49467C18.7732 3.58725 19.4736 3.80281 20.1254 4.16294C20.7568 4.51174 21.4818 5.07338 21.7646 5.92196C21.842 6.15407 21.8036 6.40918 21.6614 6.60826C21.6379 6.64118 21.6136 6.67609 21.5884 6.71293H24.3979V7.47763C24.3979 6.71293 24.3987 6.71293 24.3994 6.71293L24.401 6.71293L24.4043 6.71295L24.4111 6.71304L24.4261 6.71341C24.4367 6.71376 24.4484 6.71433 24.4612 6.71522C24.4868 6.71698 24.5168 6.71998 24.5507 6.72498C24.6184 6.73497 24.7024 6.75305 24.7967 6.78554C24.9885 6.85156 25.215 6.97444 25.4271 7.19343C25.8555 7.6359 26.1222 8.35685 26.1222 9.45969C26.1222 10.5625 25.8555 11.2835 25.4271 11.726C25.215 11.9449 24.9885 12.0678 24.7967 12.1338C24.7024 12.1663 24.6184 12.1844 24.5507 12.1944C24.5168 12.1994 24.4868 12.2024 24.4612 12.2042C24.4484 12.2051 24.4367 12.2056 24.4261 12.206L24.4111 12.2064L24.4043 12.2064L24.401 12.2065L24.3994 12.2065C24.3987 12.2065 24.3979 12.2065 24.3979 11.4418V12.2065H23.7054C24.0224 12.8343 24.275 13.5333 24.4453 14.3088C25.3798 18.5654 23.4353 23.1265 20.8246 25.9775C19.2143 27.7361 17.2072 29 15.2814 29C13.1073 29 10.8211 27.3911 9.10109 25.2311C7.3535 23.0364 6.03444 20.0882 5.89264 17.0781C5.84922 16.1563 5.91618 15.2258 6.1175 14.3088C6.76788 11.3464 8.60306 9.55325 10.5369 8.53257C10.448 8.26704 10.3272 7.96336 10.1731 7.65947C9.88504 7.09155 9.51931 6.60017 9.09942 6.32024C8.93067 6.20774 8.81352 6.03282 8.77375 5.83394C8.73397 5.63507 8.77483 5.42854 8.88733 5.25979C9.28893 4.65738 10.4593 3.46227 12.217 3.02283ZM11.9438 7.92082C12.8277 7.61093 13.6881 7.4379 14.4299 7.36324C14.2258 6.72709 13.8516 6.14296 13.42 5.64501C13.0235 5.18749 12.6017 4.82954 12.2769 4.59754C11.5507 4.84109 10.9795 5.25408 10.6039 5.60666C11.0007 6.02608 11.307 6.51409 11.5371 6.96763C11.7026 7.29398 11.8376 7.62039 11.9438 7.92082ZM15.1793 8.84865C14.3013 8.86383 13.0222 9.07443 11.7545 9.64025C9.94191 10.4493 8.19969 11.9569 7.61133 14.6368C7.51125 15.0926 7.44977 15.5557 7.42381 16.0227C8.18464 15.7705 9.1223 15.3946 10.07 14.8932C11.4761 14.1492 12.8373 13.1639 13.6995 11.9569C14.6324 10.6508 14.9333 9.76058 15.1793 8.84865ZM7.46714 17.6128C7.72625 20.0419 8.83382 22.4402 10.2975 24.2784C11.9107 26.3043 13.804 27.4706 15.2814 27.4706C16.5788 27.4706 18.2063 26.5722 19.6967 24.9446C22.0825 22.3392 23.7482 18.2659 22.9514 14.6368C22.708 13.5278 22.2703 12.6298 21.7226 11.9013C21.2353 11.2533 20.6534 10.7296 20.027 10.3105C19.84 11.1214 19.7617 11.9667 19.8769 12.7731C19.9367 13.1911 19.6461 13.5785 19.2281 13.6382C18.81 13.6979 18.4226 13.4074 18.3629 12.9893C18.0536 10.8245 18.8368 8.6019 19.5779 7.13312C19.7724 6.74779 19.9695 6.40334 20.1529 6.11337C19.9924 5.90376 19.7351 5.69456 19.3859 5.50165C19.0814 5.33347 18.7558 5.2049 18.4719 5.11538C17.3573 6.69395 17.0611 7.70783 16.8006 8.6975C16.7851 8.75629 16.7698 8.81516 16.7544 8.8742C16.4659 9.97886 16.1627 11.1397 14.944 12.8459C13.8869 14.3258 12.2932 15.4472 10.7853 16.245C9.57538 16.8852 8.37758 17.3396 7.46714 17.6128ZM20.5028 8.80139C21.2921 9.27676 22.052 9.89156 22.7039 10.677H24.3124C24.317 10.6732 24.3223 10.6683 24.3283 10.662C24.3797 10.609 24.5928 10.3389 24.5928 9.45969C24.5928 8.58048 24.3797 8.31039 24.3283 8.25734C24.3223 8.25112 24.317 8.24619 24.3124 8.24234H20.7414C20.6592 8.42223 20.5791 8.60901 20.5028 8.80139ZM24.2946 8.22991C24.2946 8.22989 24.2951 8.23008 24.2959 8.23053ZM24.2946 10.6895C24.2946 10.6895 24.295 10.6892 24.2959 10.6888Z" fill="black"/>
</svg>
