<svg width="32" height="32" viewBox="0 0 32 32" fill="none" xmlns="http://www.w3.org/2000/svg">
<path fill-rule="evenodd" clip-rule="evenodd" d="M17.4477 17.4797C17.6514 17.2353 17.9275 17.062 18.2362 16.9848C20.0053 16.5425 22.4009 15.1392 24.3927 13.4586C25.3733 12.6311 26.1958 11.7865 26.7587 11.0337C27.3693 10.2169 27.5 9.73905 27.5 9.6C27.5 9.34275 27.4395 9.19646 27.3834 9.10578C27.3216 9.00606 27.2205 8.90358 27.0583 8.80624C26.702 8.59248 26.2088 8.5 25.88 8.5H12.36C8.96524 8.5 7.04936 9.586 5.97276 10.749C4.85576 11.9556 4.5 13.3973 4.5 14.28V20.52C4.5 21.1524 4.70242 22.0728 5.22513 22.7465C5.67263 23.3233 6.45804 23.8667 8.05074 23.7074C9.72879 23.5396 11.6306 22.5599 13.4181 21.238C15.1752 19.9385 16.6494 18.4376 17.4477 17.4797ZM18.6 18.44C16.8667 20.52 12.36 24.784 8.2 25.2C4.04 25.616 3 22.2533 3 20.52V14.28C3 11.8533 4.872 7 12.36 7H25.88C26.92 7 29 7.52 29 9.6C29 12.2 22.76 17.4 18.6 18.44Z" fill="black"/>
</svg>
