<svg width="32" height="32" viewBox="0 0 32 32" fill="none" xmlns="http://www.w3.org/2000/svg">
<path fill-rule="evenodd" clip-rule="evenodd" d="M13.6663 15.0029V10.9107C13.6663 9.98712 13.3716 9.30292 12.9013 8.85141C12.4502 8.41842 11.9009 8.26172 11.4891 8.26172C9.76344 8.26172 8.33234 9.23568 7.20964 10.5481C6.08455 11.8634 5.19136 13.6033 4.52571 15.3582C3.85765 17.1195 3.40178 18.941 3.17266 20.4532C3.05819 21.2087 2.99803 21.9019 3.00005 22.481C3.00194 23.0243 3.05673 23.5843 3.25924 23.9893C3.63149 24.7338 4.31643 25.1007 5.02213 25.2492C5.71426 25.3949 6.49876 25.351 7.25041 25.2257C8.75986 24.9741 10.3665 24.354 11.358 23.8583C13.2922 22.8912 13.6663 20.8551 13.6663 18.9309V17.3443L15.952 14.6776L18.3337 17.4563V18.9309C18.3337 20.8551 18.7078 22.8912 20.642 23.8583C21.6335 24.354 23.2402 24.9741 24.7496 25.2257C25.5013 25.351 26.2858 25.3949 26.9779 25.2492C27.6836 25.1007 28.3685 24.7338 28.7408 23.9893C28.9433 23.5843 28.9981 23.0243 29 22.481C29.002 21.9019 28.9418 21.2087 28.8274 20.4532C28.5982 18.941 28.1424 17.1195 27.4743 15.3582C26.8087 13.6033 25.9155 11.8634 24.7904 10.5481C23.6677 9.23568 22.2366 8.26172 20.5109 8.26172C20.0991 8.26172 19.5498 8.41842 19.0987 8.85141C18.6284 9.30292 18.3337 9.98712 18.3337 10.9107V15.1149L16.7139 13.2251V7.4119C16.7139 6.99113 16.3728 6.65002 15.952 6.65002C15.5312 6.65002 15.1901 6.99113 15.1901 7.4119V13.2251L13.6663 15.0029ZM20.154 9.95063C20.0346 10.0653 19.8575 10.3246 19.8575 10.9107V18.9309C19.8575 20.7809 20.2383 21.9528 21.3234 22.4954C22.219 22.9432 23.6789 23.5025 25.0001 23.7227C25.6638 23.8333 26.2356 23.8483 26.664 23.7582C27.0787 23.6708 27.2784 23.5069 27.3779 23.3079C27.4113 23.2411 27.4744 22.9902 27.4762 22.4757C27.4779 21.9971 27.4275 21.3855 27.3208 20.6815C27.1076 19.2746 26.6789 17.5578 26.0496 15.8986C25.4179 14.2332 24.6009 12.6707 23.6325 11.5386C22.6617 10.4038 21.616 9.78548 20.5109 9.78548C20.451 9.78548 20.2927 9.81749 20.154 9.95063ZM12.1425 10.9107C12.1425 10.3246 11.9654 10.0653 11.846 9.95063C11.7073 9.81749 11.549 9.78548 11.4891 9.78548C10.3841 9.78548 9.33834 10.4038 8.36754 11.5386C7.39913 12.6707 6.58213 14.2332 5.95041 15.8986C5.32108 17.5578 4.89238 19.2746 4.67922 20.6815C4.57254 21.3855 4.52212 21.9971 4.52379 22.4757C4.52559 22.9902 4.58874 23.2411 4.62212 23.3079C4.72164 23.5069 4.92128 23.6708 5.33604 23.7582C5.76438 23.8483 6.33623 23.8333 6.9999 23.7227C8.3211 23.5025 9.781 22.9432 10.6766 22.4954C11.7617 21.9528 12.1425 20.7809 12.1425 18.9309V10.9107Z" fill="black"/>
</svg>
