<svg width="32" height="32" viewBox="0 0 32 32" fill="none" xmlns="http://www.w3.org/2000/svg">
<path fill-rule="evenodd" clip-rule="evenodd" d="M16 7.25455C14.1041 7.25455 12.1826 7.83629 10.2262 9.04027C9.75437 9.33061 9.27114 9.70089 8.76373 10.1107C8.60226 10.2411 8.43631 10.3773 8.26789 10.5155C7.92122 10.7999 7.5641 11.0929 7.21416 11.362C6.19455 12.1464 4.99789 12.9273 3.70909 12.9273C3.31747 12.9273 3 12.6098 3 12.2182C3 11.8266 3.31747 11.5091 3.70909 11.5091C4.46878 11.5091 5.3206 11.0294 6.34948 10.238C6.68246 9.98182 7.00854 9.71423 7.34435 9.43866C7.51711 9.29688 7.69245 9.15299 7.87263 9.00746C8.38947 8.59002 8.93048 8.17242 9.48291 7.83246C11.6234 6.51522 13.7989 5.83636 16 5.83636C18.2011 5.83636 20.3766 6.51522 22.5171 7.83246C23.0695 8.17242 23.6105 8.59002 24.1274 9.00746C24.3075 9.15299 24.4829 9.29689 24.6557 9.43866C24.9915 9.71423 25.3175 9.98182 25.6505 10.238C26.6794 11.0294 27.5312 11.5091 28.2909 11.5091C28.6825 11.5091 29 11.8266 29 12.2182C29 12.6098 28.6825 12.9273 28.2909 12.9273C27.0021 12.9273 25.8054 12.1464 24.7858 11.362C24.4359 11.0929 24.0788 10.7999 23.7321 10.5155C23.5637 10.3773 23.3977 10.2411 23.2363 10.1107C22.7289 9.70089 22.2456 9.33061 21.7738 9.04027C19.8174 7.83629 17.8959 7.25455 16 7.25455Z" fill="black"/>
<path fill-rule="evenodd" clip-rule="evenodd" d="M15.9973 21.9092C14.1121 21.9092 12.1967 21.2935 10.241 20.0123C9.74812 19.6894 9.25296 19.4022 8.75551 19.1514C8.40586 18.9752 7.97951 19.1157 7.80323 19.4654C7.62696 19.815 7.76751 20.2414 8.11716 20.4177C8.56383 20.6428 9.01277 20.9029 9.46397 21.1985C11.6048 22.601 13.7859 23.3272 15.9973 23.3272C18.2086 23.3272 20.3898 22.601 22.5306 21.1985C22.9835 20.9018 23.4341 20.6409 23.8825 20.4151C24.2322 20.239 24.373 19.8127 24.1969 19.4629C24.0208 19.1132 23.5945 18.9725 23.2447 19.1486C22.7454 19.4 22.2483 19.6882 21.7535 20.0123C19.7978 21.2935 17.8825 21.9092 15.9973 21.9092Z" fill="black"/>
<path fill-rule="evenodd" clip-rule="evenodd" d="M21.8583 16.8447C17.9427 18.5549 14.0519 18.5549 10.1363 16.8447C9.64595 16.6306 9.15458 16.4406 8.66226 16.2752C8.29108 16.1504 7.88906 16.3502 7.76431 16.7214C7.63956 17.0925 7.83933 17.4946 8.2105 17.6193C8.66228 17.7711 9.11503 17.9461 9.56877 18.1442C13.8462 20.0124 18.1484 20.0124 22.4259 18.1442C22.8813 17.9453 23.3358 17.7698 23.7893 17.6176C24.1605 17.493 24.3604 17.091 24.2358 16.7198C24.1112 16.3486 23.7092 16.1487 23.338 16.2733C22.8438 16.4392 22.3506 16.6297 21.8583 16.8447Z" fill="black"/>
<path fill-rule="evenodd" clip-rule="evenodd" d="M15.9973 10.0908C14.1121 10.0908 12.1967 10.7065 10.241 11.9877C9.74812 12.3106 9.25296 12.5978 8.75551 12.8486C8.40586 13.0248 7.97951 12.8843 7.80323 12.5346C7.62696 12.185 7.76751 11.7586 8.11716 11.5823C8.56383 11.3572 9.01277 11.0971 9.46397 10.8015C11.6048 9.39901 13.7859 8.67279 15.9973 8.67279C18.2086 8.67279 20.3898 9.39901 22.5306 10.8015C22.9835 11.0982 23.4341 11.3591 23.8825 11.5849C24.2322 11.761 24.373 12.1873 24.1969 12.5371C24.0208 12.8868 23.5945 13.0275 23.2447 12.8514C22.7454 12.6 22.2483 12.3118 21.7535 11.9877C19.7978 10.7065 17.8825 10.0908 15.9973 10.0908Z" fill="black"/>
<path fill-rule="evenodd" clip-rule="evenodd" d="M21.8583 15.1553C17.9427 13.4451 14.0519 13.4451 10.1363 15.1553C9.64595 15.3694 9.15458 15.5594 8.66226 15.7248C8.29108 15.8496 7.88906 15.6498 7.76431 15.2786C7.63956 14.9075 7.83933 14.5054 8.2105 14.3807C8.66228 14.2289 9.11503 14.0539 9.56877 13.8558C13.8462 11.9876 18.1484 11.9876 22.4259 13.8558C22.8813 14.0547 23.3358 14.2302 23.7893 14.3824C24.1605 14.507 24.3604 14.909 24.2358 15.2802C24.1112 15.6514 23.7092 15.8513 23.338 15.7267C22.8438 15.5608 22.3506 15.3703 21.8583 15.1553Z" fill="black"/>
<path fill-rule="evenodd" clip-rule="evenodd" d="M16 24.7455C14.1041 24.7455 12.1826 24.1637 10.2262 22.9597C9.75437 22.6694 9.27114 22.2991 8.76373 21.8893C8.60226 21.7589 8.43631 21.6227 8.26789 21.4845C7.92122 21.2001 7.5641 20.9071 7.21416 20.638C6.19455 19.8536 4.99789 19.0727 3.70909 19.0727C3.31747 19.0727 3 19.3902 3 19.7818C3 20.1734 3.31747 20.4909 3.70909 20.4909C4.46878 20.4909 5.3206 20.9706 6.34948 21.762C6.68246 22.0182 7.00854 22.2858 7.34435 22.5613C7.51711 22.7031 7.69245 22.847 7.87263 22.9925C8.38947 23.41 8.93048 23.8276 9.48291 24.1675C11.6234 25.4848 13.7989 26.1636 16 26.1636C18.2011 26.1636 20.3766 25.4848 22.5171 24.1675C23.0695 23.8276 23.6105 23.41 24.1274 22.9925C24.3075 22.847 24.4829 22.7031 24.6557 22.5613C24.9915 22.2858 25.3175 22.0182 25.6505 21.762C26.6794 20.9706 27.5312 20.4909 28.2909 20.4909C28.6825 20.4909 29 20.1734 29 19.7818C29 19.3902 28.6825 19.0727 28.2909 19.0727C27.0021 19.0727 25.8054 19.8536 24.7858 20.638C24.4359 20.9071 24.0788 21.2001 23.7321 21.4845C23.5637 21.6227 23.3977 21.7589 23.2363 21.8893C22.7289 22.2991 22.2456 22.6694 21.7738 22.9597C19.8174 24.1637 17.8959 24.7455 16 24.7455Z" fill="black"/>
</svg>
