<svg width="32" height="32" viewBox="0 0 32 32" fill="none" xmlns="http://www.w3.org/2000/svg">
<path fill-rule="evenodd" clip-rule="evenodd" d="M16.0088 3C16.4222 3 16.7573 3.33513 16.7573 3.74853V7.35367C17.4133 6.93233 18.2258 6.55072 19.1489 6.3433C20.893 5.95142 22.9975 6.19197 25.1027 7.87613C27.7103 9.96227 28.575 13.1865 28.3263 16.2953C28.0781 19.3976 26.7173 22.5157 24.6931 24.5399C23.07 26.163 20.6842 27.6791 17.7395 28.0264C15.1039 28.3371 12.0999 27.7019 8.89122 25.4988V28.2515C8.89122 28.6649 8.55609 29 8.14269 29C7.72929 29 7.39417 28.6649 7.39417 28.2515V24.0106C7.39417 23.7228 7.5591 23.4606 7.81844 23.3359C8.07778 23.2113 8.38561 23.2463 8.61029 23.4261C12.0127 26.148 15.0547 26.8355 17.5642 26.5396C20.0951 26.2412 22.1857 24.9301 23.6346 23.4813C25.3801 21.7358 26.611 18.9637 26.834 16.1759C27.0565 13.3946 26.2719 10.7287 24.1675 9.04513C22.4346 7.65888 20.7998 7.50675 19.4771 7.80394C18.1146 8.1101 17.0476 8.90434 16.5615 9.43664C16.3531 9.66475 16.0261 9.74143 15.738 9.6297C15.45 9.51797 15.2602 9.24077 15.2602 8.93184V3.74853C15.2602 3.33513 15.5954 3 16.0088 3Z" fill="black"/>
<path fill-rule="evenodd" clip-rule="evenodd" d="M12.3835 3C12.7969 3 13.132 3.33513 13.132 3.74853V9.37542C13.132 9.83442 13.2874 10.257 13.5745 10.5752L13.5829 10.5846C14.3004 11.38 15.3963 12.5948 15.8572 14.0246C16.0957 14.7644 16.1732 15.5829 15.937 16.4389C15.7014 17.2928 15.1712 18.1207 14.2999 18.9106C12.3015 20.7223 9.32272 20.9866 6.91543 20.6766C5.94798 20.5521 5.12145 21.2577 5.12145 22.0183V28.2515C5.12145 28.6649 4.78632 29 4.37292 29C3.95952 29 3.62439 28.6649 3.62439 28.2515V22.0183C3.62439 20.1469 5.46361 18.9803 7.10662 19.1918C9.34817 19.4805 11.7786 19.1756 13.2944 17.8015C14.0028 17.1593 14.3492 16.5652 14.4939 16.0407C14.638 15.5183 14.5994 15.002 14.4324 14.484C14.0842 13.4038 13.2179 12.4149 12.4629 11.578C11.9077 10.9625 11.635 10.1738 11.635 9.37542V3.74853C11.635 3.33513 11.9701 3 12.3835 3Z" fill="black"/>
</svg>
