<svg width="32" height="32" viewBox="0 0 32 32" fill="none" xmlns="http://www.w3.org/2000/svg">
<path fill-rule="evenodd" clip-rule="evenodd" d="M12.9273 3.70909C12.9273 3.31747 13.2448 3 13.6364 3H18.3637C18.7553 3 19.0728 3.31747 19.0728 3.70909V7.30417C20.834 6.19193 22.8197 5.74174 24.6738 6.33312C26.7143 6.98392 28.062 8.72883 28.6509 10.8862C29.2396 13.0426 29.0954 15.6694 28.1301 18.2701C27.2168 20.7308 25.7138 22.7782 23.967 24.1357C22.4743 25.2957 20.7611 25.9804 19.0728 25.9244V28.2909C19.0728 28.6825 18.7553 29 18.3637 29H13.6364C13.2448 29 12.9273 28.6825 12.9273 28.2909V25.9243C11.2389 25.9804 9.52577 25.2957 8.03303 24.1357C6.28624 22.7782 4.78323 20.7308 3.86996 18.2701C2.90468 15.6694 2.76042 13.0426 3.34912 10.8862C3.93807 8.72883 5.28575 6.98392 7.32623 6.33312C9.18042 5.74174 11.1661 6.19193 12.9273 7.30417V3.70909ZM12.9273 9.04131C11.2055 7.67436 9.33382 7.18138 7.75717 7.68424C6.29391 8.15094 5.21659 9.43051 4.71724 11.2597C4.21763 13.0898 4.32175 15.4117 5.19952 17.7767C6.02887 20.0112 7.38213 21.8338 8.90324 23.0159C10.2286 24.0458 11.6381 24.5604 12.9273 24.5047V20.1222C12.9273 19.938 12.999 19.761 13.1272 19.6287L13.6364 20.1222C13.1272 19.6287 13.1269 19.629 13.1272 19.6287L13.1292 19.6266L13.1316 19.6242L13.1374 19.6184L13.1526 19.6034C13.1644 19.592 13.1796 19.5777 13.1981 19.561C13.2352 19.5275 13.2858 19.4842 13.3501 19.4344C13.4786 19.335 13.6625 19.2092 13.9022 19.0855C14.3839 18.8369 15.0855 18.6 16 18.6C16.9146 18.6 17.6162 18.8369 18.0979 19.0855C18.3376 19.2092 18.5215 19.335 18.65 19.4344C18.7143 19.4842 18.7649 19.5275 18.802 19.561C18.8205 19.5777 18.8357 19.592 18.8475 19.6034L18.8627 19.6184L18.8684 19.6242L18.8708 19.6266L18.8719 19.6277C18.8722 19.628 18.8729 19.6287 18.3637 20.1222L18.8729 19.6287C19.0011 19.761 19.0728 19.938 19.0728 20.1222V24.5047C20.3619 24.5604 21.7715 24.0458 23.0968 23.0159C24.6179 21.8338 25.9712 20.0112 26.8005 17.7767C27.6783 15.4117 27.7824 13.0898 27.2828 11.2597C26.7835 9.43051 25.7062 8.15094 24.2429 7.68424C22.6662 7.18138 20.7946 7.67436 19.0728 9.04131V14.6007C19.0728 14.769 19.0129 14.9319 18.9039 15.0601L18.3637 14.6007C18.9039 15.0601 18.9041 15.0598 18.9039 15.0601L18.9029 15.0612L18.9019 15.0623L18.8997 15.0649L18.8943 15.0712L18.8797 15.0875C18.8682 15.1001 18.8534 15.116 18.8353 15.1347C18.7989 15.1721 18.7488 15.221 18.685 15.2773C18.5575 15.3897 18.3734 15.5334 18.1322 15.6753C17.647 15.9606 16.9333 16.2364 16 16.2364C15.0667 16.2364 14.3531 15.9606 13.8679 15.6753C13.6267 15.5334 13.4426 15.3897 13.3151 15.2773C13.2512 15.221 13.2012 15.1721 13.1648 15.1347C13.1466 15.116 13.1318 15.1001 13.1204 15.0875L13.1058 15.0712L13.1004 15.0649L13.0981 15.0623L13.0971 15.0612C13.0969 15.0609 13.0962 15.0601 13.6364 14.6007L13.0962 15.0601C12.9872 14.9319 12.9273 14.769 12.9273 14.6007V9.04131ZM14.3455 14.2899C14.4091 14.3392 14.4895 14.3956 14.5867 14.4527C14.8894 14.6307 15.3576 14.8182 16 14.8182C16.6425 14.8182 17.1107 14.6307 17.4133 14.4527C17.5106 14.3956 17.591 14.3392 17.6546 14.2899V4.41818H14.3455V14.2899ZM17.6546 20.4658C17.5973 20.4285 17.5283 20.3874 17.4476 20.3458C17.1415 20.1878 16.6613 20.0182 16 20.0182C15.3388 20.0182 14.8586 20.1878 14.5525 20.3458C14.4718 20.3874 14.4028 20.4285 14.3455 20.4658V27.5818H17.6546V20.4658Z" fill="black"/>
<path fill-rule="evenodd" clip-rule="evenodd" d="M6.8588 10.6108C7.22441 10.4704 7.63456 10.653 7.77491 11.0186C8.05518 11.7488 8.40079 12.1049 8.74421 12.2578C9.08762 12.4107 9.58353 12.4292 10.3137 12.149C10.6793 12.0086 11.0894 12.1912 11.2298 12.5568C11.3701 12.9224 11.1875 13.3326 10.8219 13.4729C9.88767 13.8316 8.97559 13.9132 8.16738 13.5534C7.35917 13.1935 6.80953 12.4611 6.45092 11.5269C6.31058 11.1613 6.49319 10.7511 6.8588 10.6108Z" fill="black"/>
<path fill-rule="evenodd" clip-rule="evenodd" d="M10.7132 21.2275C10.3215 21.227 10.0045 20.9091 10.005 20.5175C10.006 19.7354 9.81157 19.2789 9.54611 19.0127C9.28065 18.7465 8.82459 18.5509 8.04251 18.5499C7.65089 18.5494 7.33383 18.2315 7.33435 17.8399C7.33486 17.4482 7.65274 17.1312 8.04436 17.1317C9.04505 17.133 9.92548 17.3848 10.5502 18.0112C11.175 18.6376 11.4245 19.5187 11.4232 20.5194C11.4227 20.911 11.1048 21.228 10.7132 21.2275Z" fill="black"/>
<path fill-rule="evenodd" clip-rule="evenodd" d="M25.252 10.6108C24.8864 10.4704 24.4763 10.653 24.3359 11.0186C24.0557 11.7488 23.71 12.1049 23.3666 12.2578C23.0232 12.4107 22.5273 12.4292 21.7972 12.149C21.4316 12.0086 21.0214 12.1912 20.8811 12.5568C20.7407 12.9224 20.9233 13.3326 21.2889 13.4729C22.2232 13.8316 23.1353 13.9132 23.9435 13.5534C24.7517 13.1935 25.3013 12.4611 25.6599 11.5269C25.8003 11.1613 25.6177 10.7511 25.252 10.6108Z" fill="black"/>
<path fill-rule="evenodd" clip-rule="evenodd" d="M21.3976 21.2275C21.7892 21.227 22.1062 20.9091 22.1057 20.5175C22.1047 19.7354 22.2991 19.2789 22.5646 19.0127C22.8301 18.7465 23.2861 18.5509 24.0682 18.5499C24.4598 18.5494 24.7769 18.2315 24.7764 17.8399C24.7759 17.4482 24.458 17.1312 24.0664 17.1317C23.0657 17.133 22.1852 17.3848 21.5605 18.0112C20.9357 18.6376 20.6862 19.5187 20.6875 20.5194C20.6881 20.911 21.0059 21.228 21.3976 21.2275Z" fill="black"/>
</svg>
