<svg width="26" height="26" viewBox="0 0 26 26" fill="none" xmlns="http://www.w3.org/2000/svg">
<path d="M11.6863 0.764706C11.6863 0.34237 11.3439 0 10.9216 0C10.4992 0 10.1569 0.34237 10.1569 0.764706V3.76471H5C2.23857 3.76471 0 6.00329 0 8.76471C0 10.5491 0.934734 12.1152 2.34126 13C0.934734 13.8848 0 15.4509 0 17.2353C0 19.9967 2.23858 22.2353 5 22.2353H10.1569V25.2353C10.1569 25.6576 10.4992 26 10.9216 26C11.3439 26 11.6863 25.6576 11.6863 25.2353V21.4706C11.6863 21.0483 11.3439 20.7059 10.9216 20.7059H5C3.08325 20.7059 1.52941 19.1521 1.52941 17.2353C1.52941 15.3209 3.07947 13.7685 4.99301 13.7647L16.0981 13.7647L16.1023 13.7647H19.1176C19.54 13.7647 19.8824 13.4223 19.8824 13C19.8824 12.5777 19.54 12.2353 19.1176 12.2353L4.99301 12.2353C3.07947 12.2315 1.52941 10.6791 1.52941 8.76471C1.52941 6.84796 3.08325 5.29412 5 5.29412H10.9216C11.3439 5.29412 11.6863 4.95175 11.6863 4.52942V0.764706Z" fill="black"/>
<path d="M26 13C26 10.2386 23.7614 8.00004 21 8.00004H16.1974C16.9043 7.20108 17.3333 6.15066 17.3333 5.00003V0.764736C17.3333 0.342401 16.9909 3.01436e-05 16.5686 3.01436e-05C16.1463 3.01436e-05 15.8039 0.342401 15.8039 0.764736V5.00003C15.8039 6.65689 14.4608 8.00004 12.8039 8.00004H6.88235C6.46002 8.00004 6.11765 8.34241 6.11765 8.76474C6.11765 9.18708 6.46002 9.52945 6.88235 9.52945H21C22.9168 9.52945 24.4706 11.0833 24.4706 13C24.4706 14.9168 22.9168 16.4706 21 16.4706H12.832L12.8039 16.4705H6.88235C6.46002 16.4705 6.11765 16.8129 6.11765 17.2353C6.11765 17.6576 6.46002 18 6.88235 18H9.02769L9.03925 18H12.8268C14.4731 18.0124 15.8039 19.3507 15.8039 21V25.2353C15.8039 25.6576 16.1463 26 16.5686 26C16.9909 26 17.3333 25.6576 17.3333 25.2353V21C17.3333 19.8494 16.9043 18.799 16.1975 18H21C23.7614 18 26 15.7615 26 13Z" fill="black"/>
</svg>
