<svg width="32" height="32" viewBox="0 0 32 32" fill="none" xmlns="http://www.w3.org/2000/svg">
<path fill-rule="evenodd" clip-rule="evenodd" d="M7.14482 6.89847C5.94655 6.60923 5.11463 6.90809 4.77691 7.49906C4.46121 8.05148 4.51656 8.51936 4.70383 8.91798C4.83155 9.18984 5.02231 9.42632 5.20708 9.60454C5.74305 9.45017 6.31605 9.54282 6.80589 9.74722C7.48512 10.0306 8.13265 10.5696 8.63031 11.2696C9.12797 11.9695 9.42426 12.7582 9.46883 13.4928C9.5126 14.2143 9.30998 15.0133 8.63799 15.4911C7.96601 15.9688 7.14474 15.8977 6.47768 15.6194C5.79845 15.336 5.15092 14.797 4.65326 14.097C4.1556 13.3971 3.8593 12.6084 3.81474 11.8738C3.78942 11.4564 3.84655 11.0131 4.02929 10.6211C3.75812 10.3413 3.49296 9.98988 3.29937 9.57779C2.93002 8.79161 2.82717 7.7834 3.42966 6.72913C4.2743 5.25112 6.02862 5.03274 7.50892 5.39006C8.60869 5.65553 9.73735 6.26389 10.6161 7.14704C11.6384 6.23353 13.5507 5.56238 15.9999 5.56238C18.4492 5.56238 20.3616 6.23357 21.3838 7.14714C22.2626 6.26393 23.3913 5.65554 24.4911 5.39006C25.9714 5.03274 27.7257 5.25112 28.5703 6.72913C29.1728 7.7834 29.07 8.79161 28.7006 9.57779C28.507 9.98988 28.2419 10.3413 27.9707 10.6211C28.1535 11.0131 28.2106 11.4564 28.1853 11.8738C28.1407 12.6084 27.8444 13.3971 27.3467 14.097C26.8491 14.797 26.2016 15.336 25.5223 15.6194C24.8553 15.8977 24.034 15.9688 23.362 15.4911C22.69 15.0133 22.4874 14.2143 22.5312 13.4928C22.5757 12.7582 22.872 11.9695 23.3697 11.2696C23.8674 10.5696 24.5149 10.0306 25.1941 9.74722C25.684 9.54282 26.2569 9.45017 26.7929 9.60454C26.9777 9.42632 27.1684 9.18984 27.2962 8.91798C27.4834 8.51936 27.5388 8.05148 27.2231 7.49906C26.8854 6.90809 26.0534 6.60923 24.8552 6.89847C23.8826 7.13325 22.8838 7.72654 22.1991 8.55557C22.2042 8.60702 22.2068 8.65857 22.2068 8.71017C22.2068 9.9045 21.5884 10.5714 20.9153 11.2973C20.3162 11.9434 19.6737 12.6363 19.3855 13.7893C19.0883 14.9781 19.4171 15.6974 19.795 16.524C20.1347 17.2671 20.514 18.0971 20.514 19.4329C20.514 21.1618 19.3 23.5536 18.3937 25.3391C18.2453 25.6314 18.1052 25.9074 17.98 26.1617C17.7994 26.5285 17.4292 26.7694 17.0204 26.7694H14.9794C14.5706 26.7694 14.2004 26.5285 14.0198 26.1617C13.8945 25.9073 13.7543 25.6311 13.6059 25.3386C12.6996 23.5532 11.4858 21.1618 11.4858 19.4329C11.4858 18.0971 11.8651 17.2671 12.2048 16.524C12.5827 15.6974 12.9114 14.9781 12.6143 13.7893C12.3261 12.6363 11.6836 11.9434 11.0845 11.2973C10.4114 10.5714 9.79297 9.9045 9.79297 8.71017C9.79297 8.6585 9.79557 8.60687 9.80073 8.55535C9.11607 7.72644 8.11735 7.13323 7.14482 6.89847ZM6.20833 11.1793C5.82477 11.0192 5.62172 11.0854 5.54471 11.1402C5.4677 11.1949 5.33846 11.365 5.36362 11.7798C5.38799 12.1815 5.56142 12.6964 5.91795 13.1979C6.27448 13.6994 6.70386 14.0324 7.07524 14.1873C7.4588 14.3474 7.66185 14.2812 7.73886 14.2264C7.81587 14.1717 7.94511 14.0016 7.91995 13.5868C7.89558 13.1851 7.72215 12.6702 7.36562 12.1687C7.00909 11.6672 6.57971 11.3342 6.20833 11.1793ZM14.9894 24.636C14.5312 23.7333 14.0329 22.7494 13.6458 21.7859C13.2467 20.7927 13.0375 19.9898 13.0375 19.4329C13.0375 18.4459 13.2959 17.8696 13.6161 17.1691L13.6316 17.1352C14.0278 16.2689 14.5488 15.1297 14.1197 13.413C13.7344 11.8714 12.8607 10.93 12.262 10.285L12.2223 10.2422C11.8642 9.85602 11.6631 9.62989 11.5246 9.39394C11.4138 9.20529 11.3447 9.00882 11.3447 8.71017C11.3447 8.7159 11.3448 8.71559 11.3465 8.70976C11.3588 8.66684 11.4571 8.325 12.238 7.90266C13.0507 7.46315 14.3365 7.11411 15.9999 7.11411C17.6633 7.11411 18.9491 7.46315 19.7618 7.90266C20.5427 8.325 20.641 8.66684 20.6533 8.70976C20.655 8.71559 20.6551 8.7159 20.6551 8.71017C20.6551 9.00882 20.586 9.20529 20.4752 9.39394C20.3367 9.62989 20.1356 9.85602 19.7775 10.2422L19.7377 10.285C19.1391 10.93 18.2654 11.8714 17.8801 13.413C17.451 15.1297 17.972 16.2689 18.3682 17.1352L18.3837 17.1691C18.7039 17.8696 18.9623 18.4459 18.9623 19.4329C18.9623 19.9898 18.7531 20.7927 18.354 21.7859C17.967 22.7491 17.4688 23.7328 17.0107 24.6353L17.0063 24.6441C16.9072 24.8393 16.8093 25.0321 16.7164 25.2177H15.2834C15.1905 25.0322 15.0927 24.8395 14.9937 24.6444L14.9894 24.636ZM26.4553 11.1402C26.3783 11.0854 26.1752 11.0192 25.7917 11.1793C25.4203 11.3342 24.9909 11.6672 24.6344 12.1687C24.2779 12.6702 24.1044 13.1851 24.0801 13.5868C24.0549 14.0016 24.1841 14.1717 24.2611 14.2264C24.3382 14.2812 24.5412 14.3474 24.9248 14.1873C25.2961 14.0324 25.7255 13.6994 26.0821 13.1979C26.4386 12.6964 26.612 12.1815 26.6364 11.7798C26.6615 11.365 26.5323 11.1949 26.4553 11.1402Z" fill="black"/>
</svg>
