<svg width="22" height="20" viewBox="0 0 22 20" fill="none" xmlns="http://www.w3.org/2000/svg">
<path d="M11 2.11745V18.9906M11 2.11745L12.1001 1.70461C14.6036 0.765132 17.3964 0.765131 19.8999 1.70461C20.5643 1.95395 21 2.55769 21 3.22907V17.0797C21 18.0016 20.0075 18.632 19.0951 18.2896C17.1082 17.544 14.8918 17.544 12.9049 18.2896L11.0137 18.9993C11.0071 19.0018 11 18.9972 11 18.9906M11 2.11745L9.89986 1.70461C7.39638 0.765132 4.60362 0.765131 2.10014 1.70461C1.43569 1.95395 1 2.55769 1 3.22907V17.0797C1 18.0016 1.99247 18.632 2.90485 18.2896C4.89175 17.544 7.10825 17.544 9.09515 18.2896L10.9863 18.9993C10.9929 19.0018 11 18.9972 11 18.9906" stroke="#B5B5B5" stroke-width="2"/>
</svg>
