<svg width="24" height="24" viewBox="0 0 24 24" fill="none" xmlns="http://www.w3.org/2000/svg">
<path d="M19.79 14.9298C17.73 16.9798 14.78 17.6098 12.19 16.7998L7.47999 21.4998C7.13999 21.8498 6.46999 22.0598 5.98999 21.9898L3.80999 21.6898C3.08999 21.5898 2.41999 20.9098 2.30999 20.1898L2.00999 18.0098C1.93999 17.5298 2.16999 16.8598 2.49999 16.5198L7.19999 11.8198C6.39999 9.21982 7.01999 6.26982 9.07999 4.21982C12.03 1.26982 16.82 1.26982 19.78 4.21982C22.74 7.16982 22.74 11.9798 19.79 14.9298Z" stroke="#B5B5B5" stroke-width="1.5" stroke-miterlimit="10" stroke-linecap="round" stroke-linejoin="round"/>
<path d="M6.89 17.4902L9.19 19.7902" stroke="#B5B5B5" stroke-width="1.5" stroke-miterlimit="10" stroke-linecap="round" stroke-linejoin="round"/>
<path d="M14.5 11C15.3284 11 16 10.3284 16 9.5C16 8.67157 15.3284 8 14.5 8C13.6716 8 13 8.67157 13 9.5C13 10.3284 13.6716 11 14.5 11Z" stroke="#B5B5B5" stroke-width="1.5" stroke-linecap="round" stroke-linejoin="round"/>
</svg>
