<svg width="28" height="27" viewBox="0 0 28 27" fill="none" xmlns="http://www.w3.org/2000/svg">
<path fill-rule="evenodd" clip-rule="evenodd" d="M5.94307 13.0814C5.94307 12.2318 6.09173 11.417 6.35737 10.653L1.71022 7.28638C0.804486 9.0309 0.294312 10.9968 0.294312 13.0814C0.294312 15.1644 0.804055 17.1289 1.70828 18.8724L6.35285 15.4992C6.08979 14.7387 5.94307 13.927 5.94307 13.0814Z" fill="#FBBC05"/>
<path fill-rule="evenodd" clip-rule="evenodd" d="M14.1024 5.35152C16.0481 5.35152 17.8055 6.00559 19.1863 7.07581L23.203 3.27035C20.7554 1.24866 17.6172 0 14.1024 0C8.64562 0 3.95581 2.96048 1.71022 7.28634L6.35716 10.653C7.42792 7.56943 10.4801 5.35152 14.1024 5.35152Z" fill="#EA4335"/>
<path fill-rule="evenodd" clip-rule="evenodd" d="M14.1024 20.8112C10.4804 20.8112 7.42814 18.5933 6.35738 15.5098L1.71022 18.8758C3.95581 23.2022 8.64562 26.1627 14.1024 26.1627C17.4703 26.1627 20.6858 25.0281 23.099 22.9024L18.688 19.6672C17.4433 20.411 15.876 20.8112 14.1024 20.8112Z" fill="#34A853"/>
<path fill-rule="evenodd" clip-rule="evenodd" d="M27.2827 13.0815C27.2827 12.3085 27.1571 11.4759 26.9688 10.7031H14.1024V15.7572H21.5086C21.1382 17.4805 20.1304 18.8052 18.688 19.6674L23.099 22.9025C25.6339 20.6705 27.2827 17.3454 27.2827 13.0815Z" fill="#4285F4"/>
</svg>
