<svg width="70" height="97" viewBox="0 0 70 97" fill="none" xmlns="http://www.w3.org/2000/svg">
<path d="M38.5235 0L38.2886 0.236585H38.0537L37.5839 0.709756H37.349L37.1141 0.946341H36.8792L36.6443 1.18293H34.7651L34.5302 1.41951H34.2953L34.0604 1.6561V1.89268L33.5906 2.36585H33.3557L33.1208 2.60244L32.8859 2.36585H32.4161L31.7114 3.07561H31.4765L31.0067 3.54878V4.73171L30.5369 5.20488H30.302L30.0671 5.44146V5.91463L29.5973 6.3878V6.62439L29.3624 6.86098V7.09756L29.1275 7.33415V7.57073L28.8926 7.80732V8.75366L28.6577 8.99024H28.1879L27.953 9.22683L28.4228 9.7L27.953 10.1732H27.4832V10.8829L27.0134 11.3561V12.0659L26.7785 12.3024V12.7756L26.5436 13.0122V13.2488L26.3087 13.4854V14.4317L25.8389 14.9049V15.378L25.604 15.6146V15.8512L25.3691 16.0878V16.561L25.1342 16.7976L25.3691 17.0341L25.1342 17.2707V17.7439L24.6644 18.2171V18.6902L24.1946 19.1634V20.3463L23.255 21.2927V22.4756L23.0201 22.7122V23.1854L22.7852 23.422V23.6585L22.5503 23.8951V24.8415L22.3154 25.078V25.3146L22.0805 25.5512V25.7878L21.6107 26.261V26.4976L20.906 27.2073V28.1537L20.6711 28.3902V28.8634L20.2013 29.3366V29.5732L19.7315 30.0463V30.5195L20.2013 30.9927V31.2293L19.9664 31.4659H19.2617V32.1756L19.0268 32.4122H18.7919V33.3585L18.557 33.5951V33.8317L18.0872 34.3049V35.0146L17.8523 35.2512V35.961L17.1477 36.6707V36.9073L16.9128 37.1439V37.6171L16.443 38.0902V38.3268L16.2081 38.5634V39.2732L15.9732 39.5098V39.7463L15.7383 39.9829V40.4561L15.5034 40.6927V41.1659L14.5638 42.1122V43.0585L14.094 43.5317V44.0049L13.8591 44.2415V44.478L13.6242 44.7146V44.9512L13.3893 45.1878V45.4244L13.1544 45.661V46.1341L12.9195 46.3707V46.6073L12.6846 46.8439V47.3171L12.4497 47.5537V47.7902L12.2148 48.0268V48.9732L11.9799 49.2098V49.4463L11.5101 49.9195V51.5756L11.0403 52.0488V52.2854L10.5705 52.7585V53.2317L9.86577 53.9415V54.8878L9.63087 55.1244V55.5976L9.39597 55.8341V56.0707L8.69128 56.7805V57.2537L8.45638 57.4902V57.7268L8.22148 57.9634V58.2L7.98658 58.4366L8.22148 58.6732V58.9098L7.75168 59.3829V59.6195L7.51678 59.8561V60.0927L7.28188 60.3293V60.5659L7.04698 60.8024V61.039L6.81208 61.2756V61.5122L6.57718 61.7488V61.9854L6.34228 62.222V62.6951L5.87248 63.1683V64.1146L5.63758 64.3512V64.5878L5.40268 64.8244V65.061L5.16779 65.2976V66.0073L4.69799 66.4805V67.6634L4.46309 67.9V68.1366L4.22819 68.3732V68.6098L3.99329 68.8463V69.0829L3.75839 69.3195V69.5561L3.52349 69.7927V70.2659L3.05369 70.739V71.4488L2.81879 71.6854V72.1585L2.58389 72.3951V72.8683L2.34899 73.1049V73.3415L1.87919 73.8146V74.2878L1.6443 74.5244V74.9976L1.4094 75.2341V75.7073L0.939597 76.1805V76.6537L0.704698 76.8902V77.3634L0.469799 77.6V77.8366L0.234899 78.0732V78.7829L0 79.0195V79.9659L0.234899 80.2024V81.1488L0.469799 81.3854V81.622L0.939597 82.0951V82.8049L0.469799 83.278V83.9878L0.704698 84.2244H0.939597L1.1745 84.461L1.4094 84.2244H1.6443L2.34899 84.9341H2.58389L2.81879 85.1707H3.05369L3.52349 85.6439H3.75839L6.34228 88.2463H6.57718L7.51678 89.1927H7.75168L7.98658 89.4293H8.22148L8.92617 90.139H9.39597L9.63087 90.3756V90.6122H9.86577L10.3356 91.0854H10.5705L11.0403 91.5585H11.5101L11.745 91.7951H11.9799L12.4497 92.2683H12.6846L13.1544 92.7415H13.6242L14.3289 93.4512H14.5638L15.0336 93.9244H15.5034L15.9732 94.3976H16.443L16.6779 94.6341H16.9128L17.3826 95.1073H17.6174L17.8523 95.3439H19.0268L19.2617 95.5805H19.9664L20.2013 95.8171H20.6711L20.906 96.0537H21.6107L21.8456 95.8171H22.0805L22.3154 95.5805H22.7852L23.255 95.1073H23.9597L24.1946 94.8707V94.161L24.4295 93.9244H24.8993L25.3691 93.4512V93.2146L26.0738 92.5049V92.2683L26.5436 91.7951V91.5585L27.4832 90.6122H27.7181L27.953 90.3756H28.4228V89.9024L28.6577 89.6659V89.4293L30.0671 88.0098V87.3L29.3624 86.5902V86.3537L29.1275 86.1171L29.3624 85.8805V85.6439H29.1275L28.6577 85.1707V84.9341L28.4228 84.6976V83.9878L26.5436 82.0951H26.3087L25.8389 81.622H25.604L25.3691 81.3854H25.1342L24.6644 80.9122H24.4295L24.1946 80.6756H23.9597L23.255 79.9659H23.0201L22.7852 79.7293H22.5503L21.6107 78.7829H21.1409L20.906 78.5463V78.0732H20.6711L20.2013 77.6H19.7315L19.0268 76.8902H18.557L18.0872 76.4171V75.9439L18.3221 75.7073L18.0872 75.4707V75.2341L18.3221 74.9976V74.761L18.557 74.5244V74.2878L18.7919 74.0512V72.8683L19.2617 72.3951V71.6854L19.4966 71.4488H19.7315V70.9756L19.9664 70.739V70.5024L20.4362 70.0293V69.3195L20.906 68.8463V68.3732L21.1409 68.1366V67.9L21.3758 67.6634V67.4268L21.6107 67.1902V66.4805L22.0805 66.0073V65.7707L22.5503 65.2976V64.8244L22.7852 64.5878V64.3512L23.255 63.878V63.4049L23.4899 63.1683V62.4585L23.7248 62.222V61.9854L23.9597 61.7488V61.5122L24.1946 61.2756V61.039L24.4295 60.8024V60.3293L24.6644 60.0927V59.8561L24.8993 59.6195V59.3829L25.1342 59.1463V58.9098L25.3691 58.6732V58.4366L25.8389 57.9634V57.2537L26.3087 56.7805V56.5439L26.5436 56.3073V55.8341L26.7785 55.5976V55.361L27.0134 55.1244V54.6512L27.4832 54.178V53.4683L27.7181 53.2317V52.9951L27.953 52.7585V52.2854L28.1879 52.0488V51.8122L28.6577 51.339V50.6293L28.8926 50.3927V50.1561L29.1275 49.9195V49.2098L29.3624 48.9732V48.7366L29.8322 48.2634V47.5537L30.0671 47.3171V47.0805L30.302 46.8439V46.1341L30.5369 45.8976V45.661L31.0067 45.1878V44.9512L31.2416 44.7146V44.478L31.4765 44.2415V43.7683L31.9463 43.2951V42.5854L32.1812 42.3488V42.1122L32.4161 41.8756V41.1659L32.651 40.9293V40.6927L33.1208 40.2195V39.7463L33.5906 39.2732V38.5634L33.8255 38.3268V38.0902L34.2953 37.6171V37.1439L34.5302 36.9073V36.6707L34.7651 36.4341V35.7244L35.2349 35.2512V35.0146L35.4698 34.778V34.3049L35.7047 34.0683V33.8317L35.9396 33.5951V32.6488L36.1745 32.4122L36.6443 32.8854V33.5951L36.8792 33.8317V34.0683L37.1141 34.3049V35.0146L37.349 35.2512V35.4878L37.5839 35.7244V36.1976L37.8188 36.4341V36.6707L38.0537 36.9073V37.6171L38.2886 37.8537V38.0902L38.5235 38.3268V38.8L38.7584 39.0366V39.2732L38.9933 39.5098V39.9829L39.2282 40.2195V40.4561L39.4631 40.6927V40.9293L39.9329 41.4024V42.3488L40.1678 42.5854V42.822L40.6376 43.2951V44.0049L41.1074 44.478V45.1878L41.5772 45.661V45.8976L41.8121 46.1341V46.6073L42.2819 47.0805V48.0268L42.7517 48.5V48.7366L42.9866 48.9732V49.6829L43.4564 50.1561V51.1024L43.9262 51.5756V52.2854L44.1611 52.522V53.2317L44.396 53.4683V53.7049L44.6309 53.9415V54.4146L44.8658 54.6512V54.8878L45.1007 55.1244V56.0707L45.5705 56.5439V57.2537L45.8054 57.4902V57.7268L46.0403 57.9634V58.4366L46.2752 58.6732V59.3829L46.5101 59.6195V59.8561L46.745 60.0927V61.039L46.9799 61.2756V61.7488L47.2148 61.9854V62.9317L47.4497 63.1683V63.878L47.6846 64.1146V65.061L47.9195 65.2976V65.7707L48.3893 66.2439V66.9537L48.1544 67.1902V67.9H48.6242L48.8591 68.1366V68.8463L49.094 69.0829V69.7927L49.5638 70.2659V71.6854L49.7987 71.922V72.3951L50.0336 72.6317V74.0512L50.2685 74.2878V74.5244L50.5034 74.761V75.7073L50.2685 75.9439V76.4171L50.5034 76.6537V77.1268L50.7383 77.3634V78.3098L50.5034 78.5463V78.7829L50.0336 79.2561H49.7987L49.3289 79.7293H49.094V79.9659L48.6242 80.439H48.3893L47.9195 80.9122H47.4497V81.1488L46.9799 81.622H46.745L46.2752 82.0951V82.3317L46.0403 82.5683H45.5705L45.1007 83.0415H44.8658L44.1611 83.7512H43.9262V83.9878L43.6913 84.2244H43.2215L42.9866 84.461V84.6976L42.5168 85.1707L42.2819 84.9341H42.047L41.8121 84.6976H41.5772L41.3423 84.9341V85.4073L41.5772 85.6439V85.8805L41.1074 86.3537V86.8268L40.8725 87.0634H40.6376L40.4027 87.3V87.7732L40.6376 88.0098V90.3756L41.1074 90.8488V91.0854L41.3423 91.322V91.5585L41.5772 91.7951H42.047L42.5168 92.2683V93.6878H42.9866L43.2215 93.4512H43.9262L44.1611 93.6878V93.9244L44.396 94.161H45.1007L45.3356 94.3976V94.6341L44.8658 95.1073V95.3439H45.1007L45.8054 96.0537H46.0403L46.2752 95.8171V95.5805L46.5101 95.3439H46.745L47.4497 94.6341H47.9195L48.1544 94.3976H48.6242L49.094 94.8707V95.1073L48.6242 95.5805V96.0537L48.3893 96.2902V96.7634H49.7987V96.5268L50.2685 96.0537H50.5034L50.9732 96.5268V97H51.9128L52.3825 96.5268H52.6174L52.8523 96.2902H53.0872L53.557 95.8171H54.0268L54.2617 95.5805H54.4966V95.3439L55.6711 94.161H55.906L56.1409 93.9244H56.3758L56.6107 93.6878H56.8456L57.7852 92.7415H58.0201L58.4899 92.2683H58.7248L58.9597 92.0317H59.1946L59.8993 91.322H60.3691L60.604 91.0854H61.0738L61.3087 90.8488H61.5436L62.0134 90.3756H62.2483L62.4832 90.139H62.7181L62.953 89.9024H63.4228L63.8926 89.4293V89.1927L64.1275 88.9561H64.5973L64.8322 88.7195H65.0671L66.0067 87.7732H67.8859V87.5366L69.7651 85.6439V85.4073L70 85.1707L69.7651 84.9341V84.2244L69.5302 83.9878V82.3317L69.7651 82.0951V81.622H69.5302L69.2953 81.3854V81.1488L69.0604 80.9122V80.6756L68.8255 80.439V80.2024L68.5906 79.9659V79.7293L68.1208 79.2561V79.0195L67.8859 78.7829V78.5463L67.651 78.3098V77.8366L67.4161 77.6V75.2341L67.1812 74.9976V74.5244L66.9463 74.2878H66.7114L66.0067 73.578V73.3415L65.7718 73.1049V71.6854L65.302 71.2122V70.0293L65.0671 69.7927V68.1366L64.8322 67.9V67.4268L64.5973 67.1902V66.4805L64.1275 66.0073V65.7707L63.8926 65.5341L64.1275 65.2976V63.878L63.6577 63.4049V63.1683L63.4228 62.9317V61.7488L63.1879 61.5122V61.2756L62.953 61.039V59.8561L62.7181 59.6195H62.4832L62.2483 59.3829V58.6732L62.4832 58.4366L61.7785 57.7268V57.4902L61.5436 57.2537V57.0171L61.7785 56.7805V56.0707L61.5436 55.8341V55.5976H61.0738L60.604 55.1244V53.7049L60.8389 53.4683V52.9951L60.604 52.7585V52.522L60.3691 52.2854V51.8122L60.1342 51.5756V50.8659L59.8993 50.6293V50.3927L59.6644 50.1561V49.6829L59.4295 49.4463V48.7366L59.1946 48.5V48.0268L58.9597 47.7902V47.3171L58.7248 47.0805V46.6073L58.4899 46.3707V46.1341L58.0201 45.661V45.4244L57.7852 45.1878V44.7146L57.5503 44.478V43.7683L57.3154 43.5317V43.2951L57.0805 43.0585V42.822L56.8456 42.5854V41.639L56.1409 40.9293V39.9829L55.906 39.7463H55.4362L54.9664 39.2732V38.8L55.2013 38.5634V38.3268L54.9664 38.0902V37.8537L54.4966 37.3805V37.1439L54.2617 36.9073V36.6707L54.0268 36.4341V35.7244L53.557 35.2512V34.778L52.8523 34.0683V33.8317L52.3825 33.3585V31.939H52.1477L51.6779 31.4659H51.443L51.2081 31.2293V28.8634L50.9732 28.6268V28.3902L50.7383 28.1537V27.2073L50.2685 26.7341V26.4976L49.7987 26.0244V25.3146L49.5638 25.078V24.1317L49.3289 23.8951V23.6585L49.094 23.422V23.1854L48.6242 22.7122V22.4756H48.3893L48.1544 22.239H47.9195L47.6846 22.0024V21.7659L47.4497 21.5293V21.2927L47.6846 21.0561V19.6366L47.4497 19.4V18.9268L47.2148 18.6902V18.2171L46.9799 17.9805V16.561L46.5101 16.0878V15.6146L46.745 15.378V14.6683L46.5101 14.4317V14.1951L45.8054 13.4854V13.2488L45.3356 12.7756V12.539L45.8054 12.0659V11.5927L46.0403 11.3561V11.1195L46.5101 10.6463V9.93659H46.2752L46.0403 9.7L45.8054 9.93659H45.5705L45.3356 9.7V8.75366L45.5705 8.51707L45.8054 8.75366H46.2752V8.0439L45.3356 7.09756V6.3878L45.1007 6.15122H44.8658L44.6309 6.3878H44.396L44.1611 6.15122V4.96829L43.6913 4.49512V4.25854L42.5168 3.07561H42.2819L42.047 2.83902H41.5772L40.6376 1.89268V1.6561L40.1678 1.18293V0.946341L39.698 0.473171H39.4631L38.9933 0H38.5235Z" fill="#A52A2A"/>
</svg>
